<svg width="26" height="25" viewBox="0 0 26 25" fill="none" xmlns="http://www.w3.org/2000/svg">
<path d="M24.6827 22.9825L17.6257 15.9168C17.9645 15.4886 18.2667 15.0305 18.5311 14.5485C18.5395 14.5332 18.5462 14.5173 18.5546 14.5018C18.6722 14.2849 18.7834 14.064 18.8848 13.8374C18.9295 13.7378 18.9657 13.6347 19.0068 13.5337C19.067 13.3862 19.13 13.2402 19.183 13.089C19.2206 12.9815 19.2496 12.871 19.2836 12.7622C19.3311 12.6099 19.3815 12.4592 19.4216 12.3037C19.4384 12.2386 19.4493 12.1716 19.4647 12.1059C19.6364 11.3813 19.7343 10.6284 19.7354 9.85198C19.7373 8.53078 19.4765 7.27087 19.0054 6.11926C18.9999 6.10593 18.9951 6.0924 18.9896 6.07907C18.9353 5.94831 18.8779 5.8195 18.8184 5.69186C18.8103 5.67473 18.8031 5.65739 18.7951 5.6404C18.7328 5.50871 18.667 5.37897 18.599 5.25051C18.5929 5.23888 18.5874 5.22687 18.5811 5.21525C16.9263 2.11671 13.66 0.0055758 9.89581 9.3896e-06C9.09506 -0.00111366 8.31828 0.0985447 7.57251 0.277842C7.52688 0.288682 7.48032 0.295762 7.43488 0.307236C7.26976 0.349522 7.10924 0.402305 6.94755 0.452842C6.84806 0.483702 6.74711 0.509434 6.64881 0.543565C6.48594 0.600157 6.32825 0.667051 6.16964 0.731846C6.07974 0.768468 5.98814 0.799913 5.89937 0.839366C5.15051 1.17091 4.45052 1.59244 3.8147 2.09249C3.19145 2.5756 2.62679 3.13361 2.13715 3.75465C1.79797 4.18424 1.49556 4.64367 1.23101 5.12678C1.22837 5.13156 1.22622 5.13649 1.22377 5.14128C1.09969 5.36882 0.98343 5.60114 0.877296 5.83918C0.837777 5.92761 0.806084 6.01887 0.769255 6.10822C0.703765 6.26735 0.636368 6.42536 0.579144 6.5885C0.545348 6.68527 0.519572 6.78459 0.488857 6.88234C0.437307 7.04548 0.383898 7.20725 0.340711 7.37385C0.326185 7.43025 0.317039 7.48801 0.303491 7.5448C0.128248 8.27678 0.0286195 9.03831 0.0274457 9.82346C0.0196202 15.2576 4.42783 19.6675 9.86724 19.6753C10.6882 19.6764 11.4841 19.5735 12.2465 19.3854C12.2715 19.3791 12.2971 19.3755 12.3219 19.3692C12.5061 19.3222 12.6856 19.2642 12.8654 19.207C12.9463 19.1813 13.0288 19.1605 13.109 19.1327C13.2731 19.076 13.4323 19.0084 13.5923 18.9433C13.6826 18.9065 13.7746 18.8747 13.8637 18.8352C14.0519 18.7517 14.2344 18.6578 14.4165 18.5631C14.4723 18.5339 14.5297 18.5093 14.585 18.4792C15.0646 18.2176 15.5208 17.918 15.9482 17.5828L23.009 24.6524C23.2373 24.8811 23.5407 24.9996 23.8441 25C24.1438 25.0004 24.4473 24.8828 24.6802 24.6549C25.1422 24.1951 25.1433 23.4475 24.6827 22.9825ZM17.272 9.84841C17.2697 11.4578 16.7511 12.9444 15.8665 14.1552C15.4041 14.7999 14.8399 15.3617 14.1927 15.8252C12.9773 16.7048 11.4829 17.2182 9.87081 17.216C5.79514 17.21 2.48515 13.8958 2.49106 9.82708C2.49336 8.2175 3.012 6.72688 3.89643 5.51618C4.35857 4.87546 4.927 4.30963 5.5703 3.85016C6.78551 2.97052 8.28018 2.45729 9.89224 2.45958C13.9677 2.46544 17.2779 5.77951 17.272 9.84841Z" fill="#374149"/>
</svg>
